<mxfile host="app.diagrams.net" agent="Mozilla/5.0 (Windows NT 10.0; Win64; x64; rv:132.0) Gecko/20100101 Firefox/132.0" version="24.8.6">
  <diagram name="Page-1" id="5f0bae14-7c28-e335-631c-24af17079c00">
    <mxGraphModel dx="1434" dy="2223" grid="1" gridSize="10" guides="1" tooltips="1" connect="1" arrows="1" fold="1" page="1" pageScale="1" pageWidth="1100" pageHeight="850" background="none" math="0" shadow="0">
      <root>
        <mxCell id="0" />
        <mxCell id="1" parent="0" />
        <mxCell id="KPSFEAyEa-h0zJyFd5Fp-1" value="Post" style="swimlane;startSize=0;rounded=1;shadow=0;labelBackgroundColor=none;noLabel=1;fillColor=#dae8fc;strokeColor=#6c8ebf;" vertex="1" parent="1">
          <mxGeometry x="430" y="-655" width="345" height="230" as="geometry" />
        </mxCell>
        <mxCell id="KPSFEAyEa-h0zJyFd5Fp-2" value="&lt;b&gt;Telco&amp;nbsp; Service&lt;br&gt;&lt;/b&gt;" style="text;html=1;align=center;verticalAlign=middle;resizable=0;points=[];autosize=1;strokeColor=none;fillColor=none;" vertex="1" parent="KPSFEAyEa-h0zJyFd5Fp-1">
          <mxGeometry x="140" y="82.5" width="100" height="30" as="geometry" />
        </mxCell>
        <mxCell id="KPSFEAyEa-h0zJyFd5Fp-3" value="Teoco Service" style="rounded=1;whiteSpace=wrap;html=1;fillColor=#fff2cc;strokeColor=#d6b656;" vertex="1" parent="KPSFEAyEa-h0zJyFd5Fp-1">
          <mxGeometry x="20" y="20" width="170" height="60" as="geometry" />
        </mxCell>
        <mxCell id="KPSFEAyEa-h0zJyFd5Fp-4" value="Telco DB" style="shape=cylinder3;whiteSpace=wrap;html=1;boundedLbl=1;backgroundOutline=1;size=15;fillColor=#dae8fc;strokeColor=#6c8ebf;" vertex="1" parent="KPSFEAyEa-h0zJyFd5Fp-1">
          <mxGeometry x="230" y="20" width="60" height="60" as="geometry" />
        </mxCell>
        <mxCell id="KPSFEAyEa-h0zJyFd5Fp-5" value="&lt;div&gt;&amp;nbsp;Dịch vụ Telco Service : &lt;br&gt;&lt;/div&gt;&lt;div&gt;PUBLIC : &lt;br&gt;&lt;/div&gt;&lt;div&gt;- Api lấy OTP &lt;br&gt;&lt;/div&gt;&lt;div&gt;- Api Submit OTP ( đăng ký tài khoản, lưu vào hệ thống, trả lại thông tin cho khách hàng ) &lt;br&gt;&lt;/div&gt;&lt;div&gt;- Api nạp chính chủ &lt;br&gt;&lt;/div&gt;&lt;div&gt;- Api nạp hộ ( sủ dụng tài nguyên của mình ) &lt;br&gt;&lt;/div&gt;&lt;div&gt;&lt;br&gt;&lt;/div&gt;&lt;div&gt;&lt;br&gt; &lt;/div&gt;" style="text;html=1;whiteSpace=wrap;overflow=hidden;rounded=0;" vertex="1" parent="KPSFEAyEa-h0zJyFd5Fp-1">
          <mxGeometry x="15" y="112.5" width="295" height="127.5" as="geometry" />
        </mxCell>
        <mxCell id="KPSFEAyEa-h0zJyFd5Fp-8" style="edgeStyle=orthogonalEdgeStyle;rounded=0;orthogonalLoop=1;jettySize=auto;html=1;" edge="1" parent="1" source="KPSFEAyEa-h0zJyFd5Fp-6" target="KPSFEAyEa-h0zJyFd5Fp-1">
          <mxGeometry relative="1" as="geometry" />
        </mxCell>
        <mxCell id="KPSFEAyEa-h0zJyFd5Fp-6" value="&lt;b&gt;GSM_TOOL : &lt;/b&gt;Client Desktop " style="whiteSpace=wrap;html=1;aspect=fixed;" vertex="1" parent="1">
          <mxGeometry x="80" y="-670" width="90" height="90" as="geometry" />
        </mxCell>
        <mxCell id="KPSFEAyEa-h0zJyFd5Fp-7" value="&lt;b&gt;FE : &lt;/b&gt;Client Web Browser " style="whiteSpace=wrap;html=1;aspect=fixed;" vertex="1" parent="1">
          <mxGeometry x="80" y="-540" width="90" height="90" as="geometry" />
        </mxCell>
        <mxCell id="KPSFEAyEa-h0zJyFd5Fp-9" style="edgeStyle=orthogonalEdgeStyle;rounded=0;orthogonalLoop=1;jettySize=auto;html=1;entryX=0;entryY=0.657;entryDx=0;entryDy=0;entryPerimeter=0;" edge="1" parent="1" source="KPSFEAyEa-h0zJyFd5Fp-7" target="KPSFEAyEa-h0zJyFd5Fp-1">
          <mxGeometry relative="1" as="geometry" />
        </mxCell>
        <mxCell id="KPSFEAyEa-h0zJyFd5Fp-15" value="Proxy Service " style="rounded=1;whiteSpace=wrap;html=1;" vertex="1" parent="1">
          <mxGeometry x="530" y="-810" width="120" height="60" as="geometry" />
        </mxCell>
        <mxCell id="KPSFEAyEa-h0zJyFd5Fp-17" style="edgeStyle=orthogonalEdgeStyle;rounded=0;orthogonalLoop=1;jettySize=auto;html=1;entryX=0.455;entryY=0.013;entryDx=0;entryDy=0;entryPerimeter=0;" edge="1" parent="1" source="KPSFEAyEa-h0zJyFd5Fp-15" target="KPSFEAyEa-h0zJyFd5Fp-1">
          <mxGeometry relative="1" as="geometry" />
        </mxCell>
      </root>
    </mxGraphModel>
  </diagram>
</mxfile>
